<!DOCTYPE svg PUBLIC "-//W3C//DTD SVG 1.1//EN" "http://www.w3.org/Graphics/SVG/1.1/DTD/svg11.dtd">
<!-- Uploaded to: SVG Repo, www.svgrepo.com, Transformed by: SVG Repo Mixer Tools -->
<svg xmlns="http://www.w3.org/2000/svg" width="384" height="397" viewBox="0 0 384 397" version="1.1"><path d="M 46.116 2.044 C 36.286 4.618, 27.685 9.581, 19.820 17.218 C 9.724 27.020, 4.793 35.275, 1.549 47.804 C 0.179 53.097, -0.036 58.945, 0.209 84.304 L 0.500 114.500 3.237 118.500 C 7.567 124.830, 12.156 127.387, 19.977 127.829 C 27.500 128.254, 32.382 126.415, 37.197 121.342 C 42.623 115.625, 43 113.304, 43 85.646 L 43 60.228 45.794 54.880 C 47.827 50.988, 49.916 48.710, 53.463 46.515 L 58.338 43.500 85.919 43 C 112.430 42.519, 113.655 42.411, 117.500 40.194 C 119.700 38.925, 122.850 36, 124.500 33.694 C 127.246 29.855, 127.500 28.808, 127.500 21.336 C 127.500 13.878, 127.241 12.804, 124.500 8.913 C 122.850 6.570, 119.517 3.606, 117.093 2.327 C 112.759 0.039, 112.194 0.001, 83.093 0.055 C 57.165 0.103, 52.585 0.350, 46.116 2.044 M 266.907 2.327 C 264.483 3.606, 261.150 6.570, 259.500 8.913 C 256.759 12.804, 256.500 13.878, 256.500 21.336 C 256.500 28.808, 256.754 29.855, 259.500 33.694 C 261.150 36, 264.300 38.925, 266.500 40.194 C 270.345 42.411, 271.570 42.519, 298.081 43 L 325.662 43.500 330.537 46.515 C 334.084 48.710, 336.173 50.988, 338.206 54.880 L 341 60.228 341.022 85.864 C 341.047 115.126, 341.397 116.760, 349.027 123.291 C 353.848 127.418, 357.607 128.446, 365.482 127.793 C 371.893 127.261, 376.819 124.266, 380.763 118.500 L 383.500 114.500 383.792 84.836 C 384.104 53.121, 383.516 47.430, 378.871 37.203 C 373.744 25.912, 362.434 13.578, 351.708 7.579 C 339.786 0.912, 333.625 0, 300.497 -0 C 271.878 -0, 271.229 0.045, 266.907 2.327 M 187.500 63.950 C 182.045 65.383, 74.768 119.265, 71.290 122.318 C 69.416 123.964, 67.009 127.023, 65.941 129.115 C 64.084 132.755, 64 135.491, 64 192 C 64 248.509, 64.084 251.245, 65.941 254.885 C 67.009 256.977, 69.465 260.079, 71.399 261.777 C 73.333 263.475, 99.969 277.270, 130.589 292.432 C 183.965 318.862, 186.500 320, 192.008 320 C 197.512 320, 200.045 318.865, 252.626 292.845 C 282.807 277.909, 309.423 264.145, 311.774 262.258 C 320.423 255.315, 320 258.924, 320 192 C 320 135.828, 319.906 132.738, 318.092 129.210 C 317.042 127.170, 314.868 124.251, 313.260 122.724 C 309.290 118.954, 199.393 64.376, 194.400 63.694 C 192.255 63.401, 189.150 63.516, 187.500 63.950 M 163.001 124.432 L 134.502 138.756 163.251 153.120 L 192 167.484 220.749 153.120 L 249.498 138.756 220.999 124.432 C 205.324 116.554, 192.275 110.108, 192 110.108 C 191.725 110.108, 178.676 116.554, 163.001 124.432 M 107 202.759 L 107 231.515 138.500 247.255 L 170 262.996 170 234.241 L 170 205.485 138.500 189.745 L 107 174.004 107 202.759 M 245.250 189.799 L 214 205.485 214 234.240 L 214 262.996 245.500 247.255 L 277 231.515 277 202.757 C 277 186.941, 276.887 174.025, 276.750 174.056 C 276.613 174.088, 262.438 181.172, 245.250 189.799 M 10.907 258.327 C 8.483 259.606, 5.150 262.569, 3.500 264.911 L 0.500 269.168 0.208 299.612 C -0.065 328.130, 0.053 330.558, 2.063 338.011 C 7.174 356.950, 24.173 374.969, 42.794 381.186 C 49.062 383.278, 51.558 383.447, 81 383.768 L 112.500 384.113 117 381.730 C 123.267 378.410, 127.211 372.507, 127.785 365.581 C 128.455 357.500, 127.343 353.385, 123.269 348.876 C 116.649 341.549, 116.694 341.558, 86 341 L 58.500 340.500 53.777 337.723 C 50.714 335.923, 48.077 333.286, 46.277 330.223 L 43.500 325.500 43 298 C 42.450 267.723, 42.432 267.633, 35.770 261.233 C 29.757 255.456, 18.776 254.172, 10.907 258.327 M 353.500 257.348 C 349.866 259.013, 345.404 263.384, 343.157 267.479 C 341.767 270.013, 341.419 274.930, 341 298 L 340.500 325.500 337.723 330.223 C 335.923 333.286, 333.286 335.923, 330.223 337.723 L 325.500 340.500 298 341 C 267.306 341.558, 267.351 341.549, 260.731 348.876 C 256.657 353.385, 255.545 357.500, 256.215 365.581 C 256.789 372.507, 260.733 378.410, 267 381.730 L 271.500 384.113 303 383.768 C 332.442 383.447, 334.938 383.278, 341.206 381.186 C 355.563 376.393, 371.229 362.476, 377.950 348.544 C 383.488 337.064, 384 333.019, 384 300.763 C 384 271.865, 383.956 271.232, 381.673 266.907 C 380.394 264.483, 377.440 261.157, 375.110 259.516 C 371.509 256.980, 369.797 256.491, 363.687 256.253 C 359.149 256.077, 355.394 256.481, 353.500 257.348 M 161.211 336.246 C 160.596 336.987, 155.573 347.829, 150.049 360.341 C 144.524 372.852, 139.103 384.953, 138.002 387.232 C 136.901 389.511, 136 392.136, 136 393.065 C 136 395.430, 138.463 397.214, 141.195 396.827 C 143.563 396.491, 145.252 393.827, 149.799 383.250 L 152.056 378 165.857 378 L 179.658 378 182.079 383.187 C 186.588 392.849, 189.720 397, 192.499 397 C 194.187 397, 195.397 396.222, 196.096 394.688 C 197.015 392.673, 195.239 388.727, 182.255 363.938 C 169.228 339.068, 167.044 335.462, 164.844 335.199 C 163.461 335.034, 161.826 335.505, 161.211 336.246 M 201.200 336.200 C 199.487 337.913, 199.487 394.087, 201.200 395.800 C 203.037 397.637, 206.808 397.228, 207.965 395.066 C 208.534 394.002, 209 389.089, 209 384.148 L 209 375.164 216.011 374.832 L 223.022 374.500 229.782 385.500 C 236.714 396.780, 239.154 398.777, 242.555 395.954 C 244.969 393.951, 244.238 391.505, 238.494 382.357 L 232.988 373.588 236.885 369.544 C 239.029 367.320, 241.506 364.060, 242.391 362.300 C 246.124 354.874, 242.888 344.204, 235.097 338.250 L 230.845 335 216.622 335 C 206.894 335, 202.021 335.379, 201.200 336.200 M 209 355.068 L 209 366.136 218.250 365.905 C 228.931 365.638, 232.146 364.118, 234.015 358.453 C 235.376 354.332, 234.211 349.918, 230.806 346.293 C 228.843 344.204, 227.777 344, 218.826 344 L 209 344 209 355.068 M 160.308 359.500 L 156.148 369 165.422 369 L 174.696 369 169.798 359.500 C 167.104 354.275, 164.803 350, 164.684 350 C 164.566 350, 162.596 354.275, 160.308 359.500" stroke="none" fill="#cad3f5" fill-rule="evenodd"/></svg>