<?xml version="1.0" encoding="UTF-8" standalone="no"?>
<svg
   version="1.1"
   width="455px"
   height="512px"
   id="svg1"
   sodipodi:docname="c-sharp.svg"
   inkscape:version="1.3 (0e150ed6c4, 2023-07-21)"
   xmlns:inkscape="http://www.inkscape.org/namespaces/inkscape"
   xmlns:sodipodi="http://sodipodi.sourceforge.net/DTD/sodipodi-0.dtd"
   xmlns="http://www.w3.org/2000/svg"
   xmlns:svg="http://www.w3.org/2000/svg">
  <defs
     id="defs1" />
  <sodipodi:namedview
     id="namedview1"
     pagecolor="#505050"
     bordercolor="#eeeeee"
     borderopacity="1"
     inkscape:showpageshadow="0"
     inkscape:pageopacity="0"
     inkscape:pagecheckerboard="0"
     inkscape:deskcolor="#505050"
     inkscape:zoom="0.51868132"
     inkscape:cx="226.53602"
     inkscape:cy="255.45551"
     inkscape:window-width="1920"
     inkscape:window-height="1044"
     inkscape:window-x="0"
     inkscape:window-y="0"
     inkscape:window-maximized="1"
     inkscape:current-layer="svg1" />
  <path
     d="M335.2219849,244.6636963h14.1854858L347.5634155,262h-14.1361694L335.2219849,244.6636963z M454.9803467,147.4076538v217.1847534c-0.4816284,13.7158203-7.4530029,25.9771729-19.7009888,34.1234131L247.1911011,507.3074341c-10.8347778,6.2567139-28.5671387,6.2567139-39.4018555,0L19.7009277,398.7158203C8.2855835,391.2316895,0.8429565,379.1637573,0,364.5924072V147.4076538c0-12.5119629,8.864624-27.8682861,19.7009277-34.1235352L207.7892456,4.6925049c10.8347168-6.2566528,28.5670776-6.2566528,39.4018555,0l188.0882568,108.5916138C446.6565552,120.9649048,454.5403442,134.2429199,454.9803467,147.4076538z M358.8307495,331.8723755l-65.6346436-37.9788818c-43.7824097,70.0854492-140.475647,35.8363037-141.5360107-37.8928223c3.5307617-79.998291,101.9100952-103.4307861,141.5316162-37.8971558l65.6345825-37.9804077C273.2891846,42.5216675,74.9389038,107.9119263,75.8300781,256.0006714C79.6317749,415.6530762,283.4476929,462.7354736,358.8307495,331.8723755z M374.5,232.5919189h-11.2527466L365.2755127,213h-12.5l-2.0839844,19.5919189h-14.2197876L338.5,213H326l-2.0839844,19.5919189H312v12.0717773h10.631958L320.7879028,262H308.5v12.0717773h11.0037842L317.2244873,295.5h12.7346802l2.2183838-21.4282227h14.1017456L344,295.5h12.7346802l2.2183838-21.4282227H371V262h-10.7972412l1.7947388-17.3363037H374.5V232.5919189z"
     id="path1"
     style="fill:#cad3f5;fill-opacity:1" />
</svg>
