<svg fill="#cad3f5" version="1.1" id="certificate" xmlns="http://www.w3.org/2000/svg" viewBox="0 0 72 72">
  <g id="SVGRepo_iconCarrier">
    <path d="M54.5,6h-37C14.6,6,12,8.6,12,11.8v48.4c0,3.2,2.6,5.8,5.8,5.8h36.4c3.2,0,5.8-2.6,5.8-5.8V18.3L54.5,6z M50.7,16.5h4.2l0.9,0.9v43c0,1-0.8,1.8-1.8,1.8H17.8c-1,0-1.8-0.8-1.8-1.8V11.8c0-1,0.8-1.8,1.8-1.8h30.1v5.1C47.9,15.2,49.2,16.5,50.7,16.5z" />
    <path d="M23 27.5h26a2 2 0 0 0 0-4H23a2 2 0 0 0 0 4zM23 37.5h26a2 2 0 0 0 0-4H23a2 2 0 0 0 0 4zM23 47.5h15a2 2 0 0 0 0-4H23a2 2 0 0 0 0 4z" />
    <path d="M45 50.2l-2.2 7 5.8-3.6 5.8 3.6-2.2-7c2.8-1.7 4.7-4.7 4.7-8.1 0-5.2-4.2-9.4-9.4-9.4s-9.4 4.2-9.4 9.4c0 3.4 1.9 6.4 4.7 8.1zm4.5-13.5c3 0 5.4 2.4 5.4 5.4s-2.4 5.4-5.4 5.4-5.4-2.4-5.4-5.4 2.4-5.4 5.4-5.4z" />
  </g>
</svg>
