<svg id="svg" xmlns="http://www.w3.org/2000/svg" xmlns:xlink="http://www.w3.org/1999/xlink" width="400" height="447.27694090382386" viewBox="0, 0, 400,447.27694090382386" version="1.1"><g id="svgg"><path id="path0" d="M190.800 0.423 C 186.615 0.935,182.383 1.954,180.216 2.970 C 179.107 3.490,177.255 4.325,176.100 4.826 C 174.945 5.327,174.000 5.855,174.000 6.000 C 174.000 6.145,173.100 6.685,172.000 7.200 C 170.900 7.715,170.000 8.305,170.000 8.511 C 170.000 8.717,169.745 8.788,169.433 8.668 C 169.121 8.548,168.780 8.676,168.674 8.951 C 168.569 9.226,167.564 9.887,166.441 10.420 C 165.319 10.953,164.400 11.511,164.400 11.661 C 164.400 11.811,163.201 12.518,161.735 13.232 C 160.269 13.946,158.739 14.861,158.335 15.265 C 157.931 15.669,157.364 16.000,157.075 16.000 C 156.787 16.000,156.145 16.378,155.649 16.840 C 155.153 17.302,154.654 17.587,154.540 17.474 C 154.426 17.360,153.988 17.612,153.567 18.033 C 153.145 18.455,152.530 18.800,152.200 18.800 C 151.870 18.800,151.600 18.980,151.600 19.200 C 151.600 19.420,151.343 19.600,151.029 19.600 C 150.714 19.600,150.216 19.825,149.921 20.100 C 149.445 20.544,148.718 20.982,145.815 22.571 C 145.384 22.807,144.815 23.196,144.551 23.435 C 144.288 23.675,143.021 24.385,141.736 25.014 C 140.451 25.642,139.051 26.481,138.625 26.878 C 138.198 27.275,137.627 27.600,137.355 27.600 C 137.084 27.600,136.353 28.013,135.731 28.517 C 135.109 29.022,133.701 29.877,132.603 30.417 C 131.505 30.958,130.425 31.601,130.203 31.846 C 129.981 32.091,128.765 32.804,127.500 33.429 C 126.235 34.055,125.200 34.720,125.200 34.907 C 125.200 35.094,125.020 35.136,124.800 35.000 C 124.580 34.864,124.400 34.901,124.400 35.082 C 124.400 35.263,123.500 35.838,122.400 36.361 C 121.300 36.883,120.400 37.457,120.400 37.637 C 120.400 37.816,119.320 38.459,118.000 39.065 C 116.680 39.671,115.600 40.302,115.600 40.468 C 115.600 40.634,114.250 41.419,112.600 42.213 C 110.950 43.006,109.600 43.792,109.600 43.960 C 109.600 44.127,108.700 44.685,107.600 45.200 C 106.500 45.715,105.600 46.305,105.600 46.511 C 105.600 46.717,105.345 46.788,105.033 46.668 C 104.721 46.548,104.383 46.666,104.282 46.930 C 104.181 47.193,103.270 47.823,102.258 48.328 C 101.246 48.834,100.330 49.390,100.221 49.566 C 100.113 49.741,98.804 50.495,97.312 51.242 C 95.820 51.989,94.539 52.739,94.463 52.910 C 94.388 53.080,93.751 53.460,93.047 53.754 C 92.344 54.048,91.505 54.544,91.184 54.857 C 90.863 55.169,89.561 55.945,88.291 56.582 C 87.021 57.219,85.784 57.979,85.542 58.270 C 85.300 58.562,84.935 58.800,84.732 58.800 C 84.528 58.800,83.335 59.463,82.081 60.273 C 80.826 61.082,78.939 62.166,77.886 62.680 C 76.833 63.195,75.231 64.152,74.326 64.808 C 73.421 65.464,72.471 66.000,72.215 66.000 C 71.960 66.000,71.391 66.336,70.950 66.746 C 70.510 67.156,69.216 67.920,68.075 68.443 C 66.934 68.967,66.000 69.522,66.000 69.677 C 66.000 69.831,65.145 70.388,64.100 70.913 C 61.694 72.121,60.256 72.935,60.000 73.232 C 59.890 73.360,58.945 73.887,57.900 74.403 C 56.855 74.919,55.999 75.445,55.999 75.571 C 55.998 75.697,54.963 76.340,53.699 77.000 C 52.434 77.660,51.293 78.346,51.161 78.524 C 51.030 78.702,49.680 79.485,48.161 80.263 C 46.643 81.041,45.310 81.805,45.200 81.960 C 45.090 82.116,44.190 82.658,43.200 83.165 C 42.210 83.673,41.310 84.207,41.200 84.353 C 41.090 84.499,39.830 85.230,38.400 85.976 C 36.970 86.723,35.710 87.455,35.600 87.604 C 35.490 87.753,34.235 88.488,32.812 89.238 C 31.388 89.987,30.038 90.808,29.812 91.063 C 29.585 91.318,28.574 91.894,27.565 92.343 C 26.556 92.793,25.527 93.406,25.278 93.706 C 25.029 94.006,23.920 94.676,22.813 95.194 C 21.706 95.713,20.800 96.286,20.800 96.468 C 20.800 96.651,20.592 96.800,20.338 96.800 C 20.084 96.800,19.286 97.250,18.564 97.800 C 17.843 98.350,17.140 98.800,17.001 98.800 C 16.862 98.800,16.294 99.340,15.739 100.000 C 15.183 100.660,14.501 101.200,14.223 101.200 C 13.945 101.200,12.902 102.235,11.905 103.500 C 10.907 104.765,9.666 106.270,9.146 106.843 C 8.248 107.834,7.854 108.423,6.700 110.500 C 6.425 110.995,6.020 111.532,5.800 111.694 C 5.533 111.890,5.533 111.992,5.800 112.000 C 6.063 112.008,6.062 112.113,5.796 112.306 C 5.573 112.468,4.972 113.590,4.460 114.800 C 3.947 116.010,3.273 117.511,2.962 118.135 C 2.651 118.760,2.515 119.463,2.660 119.697 C 2.805 119.932,2.750 120.017,2.539 119.886 C 2.040 119.577,0.905 125.072,0.408 130.200 C -0.110 135.552,-0.112 323.543,0.406 327.535 C 0.805 330.609,2.272 336.057,2.793 336.400 C 2.960 336.510,3.589 337.545,4.190 338.700 C 4.792 339.855,5.475 340.800,5.709 340.800 C 5.942 340.800,6.035 340.899,5.914 341.019 C 5.518 341.415,9.161 345.404,11.200 346.807 C 11.970 347.337,12.780 348.001,13.000 348.282 C 13.388 348.778,13.895 349.075,19.274 351.950 C 20.663 352.692,21.860 353.459,21.934 353.652 C 22.008 353.846,22.233 353.903,22.434 353.779 C 22.635 353.655,22.800 353.713,22.800 353.908 C 22.800 354.103,23.745 354.697,24.900 355.227 C 26.055 355.758,27.090 356.302,27.200 356.438 C 27.310 356.573,28.651 357.345,30.180 358.153 C 31.709 358.960,33.239 359.871,33.580 360.177 C 33.921 360.483,35.010 361.044,36.000 361.424 C 36.990 361.804,37.986 362.339,38.213 362.614 C 38.439 362.889,39.474 363.513,40.513 364.001 C 41.551 364.489,42.400 365.059,42.400 365.268 C 42.400 365.476,42.565 365.545,42.766 365.421 C 42.967 365.297,43.192 365.331,43.266 365.498 C 43.340 365.664,44.480 366.320,45.800 366.955 C 47.120 367.591,48.290 368.241,48.400 368.401 C 48.510 368.560,49.770 369.290,51.200 370.024 C 52.630 370.757,53.890 371.457,54.000 371.578 C 54.110 371.700,55.097 372.250,56.193 372.800 C 57.289 373.350,58.428 374.027,58.725 374.303 C 59.021 374.580,60.240 375.268,61.432 375.832 C 62.624 376.397,63.600 377.036,63.600 377.253 C 63.600 377.470,63.800 377.524,64.045 377.372 C 64.289 377.221,64.604 377.278,64.745 377.499 C 65.026 377.942,68.240 379.808,71.492 381.417 C 72.643 381.986,73.677 382.601,73.789 382.782 C 73.902 382.964,75.210 383.697,76.697 384.411 C 78.184 385.125,79.492 385.851,79.604 386.024 C 79.825 386.363,82.702 387.985,86.700 390.025 C 88.075 390.727,89.200 391.469,89.200 391.674 C 89.200 391.879,89.380 391.936,89.600 391.800 C 89.820 391.664,90.003 391.698,90.006 391.876 C 90.010 392.054,90.955 392.650,92.106 393.200 C 93.258 393.750,94.290 394.290,94.400 394.400 C 94.510 394.510,95.320 394.987,96.200 395.461 C 97.080 395.934,98.430 396.689,99.200 397.139 C 99.970 397.589,101.545 398.454,102.700 399.062 C 103.855 399.670,104.800 400.320,104.800 400.507 C 104.800 400.694,105.007 400.719,105.261 400.562 C 105.514 400.406,105.925 400.557,106.175 400.898 C 106.424 401.238,107.296 401.797,108.114 402.138 C 108.931 402.480,109.600 402.959,109.600 403.203 C 109.600 403.447,109.765 403.545,109.966 403.421 C 110.167 403.297,110.392 403.331,110.466 403.498 C 110.540 403.664,111.680 404.320,113.000 404.955 C 114.320 405.591,115.490 406.235,115.600 406.387 C 115.710 406.539,116.851 407.173,118.136 407.796 C 119.421 408.419,120.684 409.125,120.943 409.365 C 121.202 409.604,122.311 410.250,123.407 410.800 C 124.503 411.350,125.460 411.936,125.534 412.102 C 125.608 412.269,125.833 412.303,126.034 412.179 C 126.235 412.055,126.400 412.113,126.400 412.308 C 126.400 412.504,127.615 413.268,129.100 414.007 C 130.585 414.746,131.890 415.472,132.000 415.619 C 132.206 415.895,136.563 418.328,139.400 419.752 C 140.280 420.194,141.105 420.708,141.234 420.894 C 141.363 421.081,142.620 421.778,144.027 422.444 C 145.435 423.109,146.679 423.799,146.793 423.975 C 146.907 424.152,148.080 424.872,149.400 425.575 C 153.747 427.890,154.973 428.573,157.400 430.037 C 158.720 430.833,160.205 431.612,160.700 431.769 C 161.195 431.926,161.600 432.195,161.600 432.368 C 161.600 432.540,162.857 433.261,164.394 433.969 C 165.931 434.678,167.289 435.421,167.413 435.621 C 167.537 435.821,168.844 436.573,170.319 437.292 C 171.794 438.012,173.129 438.798,173.287 439.041 C 173.444 439.283,174.389 439.793,175.387 440.174 C 176.384 440.555,177.200 441.007,177.200 441.178 C 177.200 441.535,181.248 443.408,182.897 443.815 C 183.501 443.964,183.908 444.226,183.801 444.398 C 183.695 444.570,184.101 444.811,184.704 444.934 C 185.307 445.057,187.330 445.526,189.200 445.977 C 197.358 447.945,210.787 447.288,217.000 444.618 C 217.660 444.334,219.360 443.603,220.779 442.993 C 222.197 442.383,223.674 441.590,224.061 441.229 C 224.448 440.868,225.448 440.327,226.282 440.025 C 227.117 439.724,227.980 439.249,228.200 438.970 C 228.420 438.692,229.770 437.866,231.200 437.135 C 232.630 436.404,234.059 435.559,234.375 435.257 C 234.691 434.954,235.692 434.389,236.600 434.000 C 237.508 433.611,238.509 433.044,238.825 432.740 C 239.141 432.437,240.255 431.741,241.300 431.195 C 242.345 430.648,243.200 430.055,243.200 429.877 C 243.200 429.699,243.380 429.664,243.600 429.800 C 243.820 429.936,244.000 429.877,244.000 429.669 C 244.000 429.461,244.675 428.979,245.500 428.597 C 246.325 428.215,247.931 427.295,249.068 426.552 C 250.205 425.808,251.330 425.200,251.568 425.200 C 251.806 425.200,252.331 424.869,252.735 424.465 C 253.139 424.061,254.669 423.146,256.135 422.432 C 257.601 421.718,258.800 420.980,258.800 420.794 C 258.800 420.607,259.205 420.328,259.700 420.174 C 260.195 420.020,261.500 419.310,262.600 418.596 C 263.700 417.881,265.275 416.985,266.100 416.603 C 266.925 416.221,267.600 415.739,267.600 415.531 C 267.600 415.323,267.780 415.264,268.000 415.400 C 268.220 415.536,268.400 415.494,268.400 415.307 C 268.400 415.120,269.435 414.449,270.700 413.815 C 271.965 413.181,273.144 412.423,273.320 412.131 C 273.496 411.839,273.873 411.600,274.158 411.600 C 274.443 411.600,275.766 410.896,277.097 410.035 C 278.429 409.174,280.482 408.006,281.659 407.440 C 282.837 406.873,283.620 406.407,283.400 406.404 C 283.180 406.401,284.080 405.832,285.400 405.140 C 286.720 404.449,287.890 403.760,288.000 403.610 C 288.110 403.460,289.190 402.813,290.400 402.172 C 291.610 401.531,292.690 400.894,292.800 400.757 C 292.910 400.620,293.810 400.099,294.800 399.599 C 295.790 399.099,297.351 398.176,298.270 397.547 C 299.188 396.918,300.381 396.235,300.920 396.030 C 301.460 395.825,303.679 394.510,305.851 393.109 C 308.023 391.707,310.565 390.227,311.500 389.819 C 312.435 389.412,313.200 388.955,313.200 388.805 C 313.200 388.654,314.181 388.035,315.379 387.428 C 316.577 386.822,317.612 386.207,317.679 386.061 C 317.746 385.916,319.015 385.185,320.500 384.438 C 321.985 383.691,323.200 382.972,323.201 382.840 C 323.201 382.708,324.281 382.074,325.601 381.430 C 326.920 380.787,328.000 380.143,328.000 379.999 C 328.000 379.855,328.900 379.315,330.000 378.800 C 331.100 378.285,332.000 377.720,332.000 377.544 C 332.000 377.369,332.300 377.340,332.666 377.481 C 333.063 377.633,333.231 377.574,333.082 377.333 C 332.946 377.112,333.906 376.418,335.217 375.792 C 336.528 375.165,337.600 374.527,337.600 374.373 C 337.600 374.220,338.635 373.588,339.900 372.969 C 341.165 372.350,342.549 371.519,342.975 371.122 C 343.402 370.725,343.927 370.400,344.142 370.400 C 344.357 370.400,345.808 369.626,347.366 368.679 C 348.925 367.733,350.695 366.712,351.300 366.412 C 351.905 366.111,352.400 365.715,352.400 365.532 C 352.400 365.350,352.582 365.200,352.804 365.200 C 353.027 365.200,354.602 364.345,356.306 363.300 C 358.009 362.255,360.122 361.040,361.001 360.600 C 361.881 360.160,362.949 359.485,363.375 359.100 C 363.802 358.715,364.320 358.400,364.526 358.400 C 364.892 358.400,371.604 354.435,372.000 353.984 C 372.110 353.859,373.360 353.160,374.777 352.430 C 376.195 351.700,377.598 350.859,377.896 350.561 C 378.194 350.263,379.065 349.722,379.832 349.358 C 380.600 348.994,381.408 348.359,381.628 347.948 C 381.848 347.537,382.247 347.197,382.514 347.194 C 382.781 347.191,384.673 345.436,386.717 343.294 C 391.233 338.562,391.596 338.130,391.300 337.833 C 391.172 337.705,391.258 337.600,391.493 337.600 C 391.727 337.600,392.317 336.835,392.803 335.900 C 393.290 334.965,393.824 334.110,393.990 334.000 C 394.491 333.669,395.845 330.725,396.428 328.700 C 396.729 327.655,397.101 326.800,397.254 326.800 C 397.775 326.800,399.227 319.386,399.608 314.779 C 400.112 308.691,400.100 135.216,399.596 129.600 C 399.151 124.649,398.032 119.533,397.470 119.881 C 397.253 120.014,397.200 119.923,397.352 119.678 C 397.503 119.433,397.450 118.910,397.234 118.516 C 397.018 118.122,396.342 116.630,395.731 115.200 C 395.121 113.770,394.377 112.347,394.078 112.038 C 393.778 111.729,393.373 111.054,393.176 110.538 C 392.980 110.022,392.526 109.600,392.167 109.600 C 391.751 109.600,391.598 109.382,391.745 109.000 C 391.871 108.670,391.801 108.400,391.587 108.400 C 391.374 108.400,391.200 108.201,391.200 107.958 C 391.200 107.406,388.870 104.388,387.883 103.660 C 387.479 103.362,386.984 102.683,386.781 102.149 C 386.578 101.616,386.094 101.066,385.706 100.928 C 385.318 100.789,384.303 100.029,383.451 99.238 C 380.086 96.115,379.634 95.778,377.108 94.501 C 376.507 94.198,375.926 93.804,375.816 93.627 C 375.707 93.449,374.578 92.786,373.309 92.152 C 372.039 91.518,370.653 90.687,370.229 90.305 C 369.806 89.922,369.086 89.494,368.629 89.353 C 368.173 89.211,366.540 88.335,365.000 87.406 C 363.460 86.476,361.795 85.587,361.300 85.431 C 360.805 85.274,360.400 84.968,360.400 84.749 C 360.400 84.531,360.220 84.464,360.000 84.600 C 359.780 84.736,359.600 84.679,359.600 84.473 C 359.600 84.267,358.700 83.711,357.600 83.238 C 356.500 82.765,355.600 82.192,355.600 81.965 C 355.600 81.738,355.435 81.655,355.234 81.779 C 355.033 81.903,354.808 81.869,354.734 81.702 C 354.660 81.536,353.522 80.860,352.203 80.200 C 350.885 79.540,349.596 78.804,349.339 78.565 C 349.082 78.325,347.821 77.619,346.536 76.996 C 345.251 76.373,344.104 75.721,343.986 75.547 C 343.868 75.373,343.121 74.959,342.326 74.627 C 341.530 74.294,340.637 73.792,340.340 73.511 C 340.043 73.230,338.540 72.350,337.000 71.556 C 334.495 70.264,330.839 68.228,329.200 67.213 C 328.870 67.009,327.520 66.271,326.200 65.573 C 324.880 64.876,323.530 64.084,323.200 63.814 C 322.870 63.544,321.700 62.903,320.600 62.389 C 319.500 61.875,318.510 61.329,318.400 61.176 C 318.290 61.022,316.940 60.221,315.400 59.395 C 313.860 58.569,311.610 57.362,310.400 56.712 C 309.190 56.062,308.140 55.366,308.067 55.165 C 307.993 54.964,307.746 54.800,307.517 54.800 C 307.289 54.800,305.767 53.990,304.136 53.000 C 302.506 52.010,301.023 51.200,300.842 51.200 C 300.660 51.200,299.833 50.739,299.003 50.176 C 298.173 49.613,296.573 48.677,295.447 48.097 C 294.321 47.516,293.268 46.852,293.106 46.620 C 292.944 46.389,292.809 46.341,292.806 46.514 C 292.803 46.687,292.128 46.372,291.307 45.814 C 290.486 45.256,289.599 44.800,289.336 44.800 C 289.073 44.800,288.609 44.552,288.306 44.249 C 288.003 43.946,286.595 43.100,285.177 42.370 C 283.760 41.640,282.505 40.908,282.389 40.742 C 282.273 40.577,280.968 39.875,279.489 39.183 C 278.010 38.491,276.800 37.781,276.800 37.606 C 276.800 37.430,276.095 37.005,275.234 36.660 C 274.373 36.316,272.708 35.421,271.534 34.673 C 270.360 33.924,268.989 33.182,268.486 33.024 C 267.984 32.867,267.264 32.427,266.886 32.048 C 266.509 31.669,265.390 31.020,264.400 30.605 C 263.410 30.191,262.240 29.555,261.800 29.192 C 261.360 28.829,260.010 28.028,258.800 27.413 C 257.590 26.797,256.171 25.957,255.646 25.547 C 255.121 25.136,254.472 24.800,254.202 24.800 C 253.932 24.800,253.056 24.355,252.254 23.811 C 250.682 22.744,246.707 20.521,243.251 18.775 C 242.070 18.178,240.990 17.522,240.851 17.317 C 240.713 17.112,239.700 16.520,238.600 16.000 C 237.500 15.480,236.506 14.919,236.392 14.753 C 236.115 14.350,231.360 12.000,230.822 12.000 C 230.590 12.000,230.400 11.818,230.400 11.595 C 230.400 11.372,229.410 10.721,228.200 10.148 C 226.990 9.575,226.000 8.917,226.000 8.687 C 226.000 8.456,225.890 8.376,225.756 8.511 C 225.622 8.645,224.857 8.341,224.056 7.836 C 223.255 7.330,222.195 6.788,221.700 6.631 C 221.205 6.475,220.800 6.148,220.800 5.906 C 220.800 5.665,220.683 5.584,220.540 5.727 C 220.396 5.870,220.081 5.748,219.840 5.456 C 219.598 5.164,218.230 4.513,216.800 4.009 C 215.370 3.506,214.109 2.952,213.997 2.780 C 212.858 1.022,198.135 -0.474,190.800 0.423 M202.426 133.643 C 203.561 133.886,205.540 134.606,206.823 135.243 C 208.106 135.879,209.300 136.400,209.478 136.400 C 209.655 136.401,210.330 136.857,210.977 137.414 C 211.625 137.970,212.390 138.336,212.677 138.226 C 212.965 138.115,213.200 138.202,213.200 138.419 C 213.200 138.636,213.875 139.125,214.700 139.506 C 215.525 139.888,216.332 140.380,216.494 140.600 C 216.656 140.820,216.791 140.865,216.794 140.700 C 216.797 140.535,217.155 140.755,217.590 141.190 C 218.024 141.624,218.873 142.104,219.476 142.255 C 220.080 142.406,220.901 142.836,221.302 143.209 C 222.094 143.947,226.929 146.400,227.592 146.400 C 227.816 146.400,228.000 146.575,228.000 146.790 C 228.000 147.157,230.036 148.397,230.696 148.432 C 230.863 148.441,231.360 148.778,231.800 149.181 C 232.240 149.584,233.500 150.313,234.600 150.801 C 235.700 151.290,236.904 151.957,237.275 152.284 C 237.646 152.611,238.141 152.760,238.375 152.616 C 238.609 152.471,238.800 152.552,238.800 152.796 C 238.800 153.040,239.519 153.561,240.398 153.955 C 241.277 154.348,241.903 154.764,241.788 154.878 C 241.674 154.993,242.633 155.543,243.919 156.101 C 245.206 156.659,246.559 157.416,246.925 157.782 C 247.292 158.149,247.954 158.476,248.396 158.510 C 248.838 158.543,249.200 158.722,249.200 158.908 C 249.200 159.093,249.986 159.593,250.947 160.018 C 251.908 160.443,252.896 161.033,253.141 161.329 C 253.387 161.626,254.291 162.100,255.150 162.384 C 256.009 162.667,257.217 163.333,257.834 163.863 C 258.450 164.393,259.190 164.736,259.477 164.626 C 259.765 164.515,260.000 164.609,260.000 164.833 C 260.000 165.057,260.675 165.522,261.500 165.865 C 262.325 166.209,263.090 166.629,263.200 166.799 C 263.527 167.304,266.377 168.800,267.012 168.800 C 267.335 168.800,267.600 169.041,267.600 169.336 C 267.600 169.631,268.320 170.110,269.200 170.400 C 270.080 170.690,270.800 171.035,270.800 171.166 C 270.800 171.297,271.341 171.644,272.002 171.937 C 272.664 172.230,273.111 172.621,272.996 172.806 C 272.882 172.991,273.125 173.249,273.535 173.380 C 273.946 173.510,274.760 174.153,275.344 174.808 C 275.928 175.464,276.604 176.000,276.846 176.000 C 277.088 176.000,277.188 176.255,277.068 176.567 C 276.948 176.879,277.064 177.218,277.325 177.320 C 277.586 177.423,278.238 178.653,278.773 180.054 C 279.308 181.454,279.904 182.812,280.097 183.070 C 280.291 183.329,280.409 183.779,280.361 184.070 C 280.313 184.362,280.397 184.878,280.548 185.219 C 281.061 186.372,280.652 263.197,280.132 263.519 C 279.874 263.678,279.534 264.346,279.375 265.004 C 278.935 266.828,277.792 268.910,276.430 270.368 C 275.753 271.092,275.200 271.834,275.200 272.017 C 275.200 272.199,274.480 272.753,273.600 273.248 C 272.720 273.743,272.000 274.305,272.000 274.497 C 272.000 274.690,271.820 274.736,271.600 274.600 C 271.380 274.464,271.200 274.502,271.200 274.685 C 271.200 274.867,270.345 275.463,269.300 276.008 C 268.255 276.554,267.338 277.140,267.263 277.312 C 267.187 277.483,265.888 278.224,264.375 278.958 C 262.863 279.692,261.706 280.373,261.806 280.472 C 261.905 280.571,260.729 281.260,259.193 282.003 C 257.657 282.747,256.400 283.469,256.400 283.609 C 256.400 283.749,255.500 284.285,254.400 284.800 C 253.300 285.315,252.400 285.841,252.399 285.968 C 252.399 286.096,251.364 286.735,250.099 287.390 C 248.835 288.044,247.554 288.818,247.252 289.109 C 246.951 289.400,245.556 290.198,244.152 290.883 C 242.749 291.567,241.600 292.245,241.600 292.390 C 241.600 292.535,240.520 293.169,239.200 293.800 C 237.880 294.431,236.800 295.067,236.800 295.213 C 236.800 295.359,236.035 295.817,235.100 296.232 C 234.165 296.646,233.220 297.199,233.000 297.460 C 232.780 297.722,231.430 298.535,230.000 299.267 C 228.570 299.999,227.053 300.911,226.629 301.294 C 226.206 301.677,225.486 302.104,225.029 302.242 C 224.573 302.380,223.660 302.896,223.000 303.389 C 222.340 303.881,220.990 304.697,220.000 305.200 C 219.010 305.703,217.660 306.497,217.000 306.964 C 216.340 307.431,214.903 308.260,213.807 308.807 C 212.711 309.353,211.612 309.986,211.366 310.213 C 211.119 310.440,210.171 310.962,209.259 311.374 C 208.346 311.785,207.600 312.286,207.600 312.488 C 207.600 312.689,207.217 312.732,206.750 312.584 C 206.216 312.415,205.993 312.466,206.152 312.722 C 206.426 313.166,205.119 313.446,200.400 313.956 C 198.590 314.152,197.303 314.132,197.155 313.906 C 197.020 313.700,196.570 313.575,196.155 313.628 C 195.235 313.746,193.200 312.952,193.200 312.474 C 193.200 312.205,190.728 311.170,189.600 310.967 C 188.768 310.817,187.989 310.197,187.771 309.510 C 187.567 308.865,187.439 308.810,187.162 309.247 C 186.888 309.680,186.811 309.686,186.806 309.276 C 186.803 308.988,186.636 308.854,186.436 308.978 C 185.896 309.312,184.800 308.791,184.800 308.201 C 184.800 307.918,184.343 307.572,183.784 307.432 C 183.225 307.291,182.865 307.019,182.984 306.826 C 183.103 306.633,182.841 306.569,182.401 306.684 C 181.907 306.813,181.600 306.696,181.600 306.380 C 181.600 306.098,181.495 305.972,181.367 306.100 C 181.238 306.228,180.777 305.977,180.342 305.542 C 179.906 305.106,179.336 304.824,179.075 304.914 C 178.814 305.004,178.214 304.667,177.742 304.164 C 177.270 303.661,176.775 303.358,176.642 303.491 C 176.509 303.624,176.400 303.504,176.400 303.224 C 176.400 302.935,176.140 302.814,175.800 302.945 C 175.470 303.071,175.200 302.990,175.200 302.764 C 175.200 302.538,175.043 302.450,174.850 302.569 C 174.658 302.688,174.178 302.355,173.784 301.830 C 173.390 301.306,172.827 300.968,172.534 301.081 C 172.240 301.193,172.000 301.076,172.000 300.819 C 172.000 300.563,171.836 300.454,171.636 300.578 C 171.104 300.906,170.000 300.395,170.000 299.821 C 170.000 299.549,169.275 299.109,168.388 298.844 C 167.502 298.578,166.875 298.203,166.994 298.009 C 167.233 297.623,165.698 296.986,164.900 297.139 C 164.625 297.192,164.400 297.017,164.400 296.751 C 164.400 296.485,164.298 296.369,164.173 296.494 C 164.048 296.618,163.412 296.198,162.759 295.560 C 161.578 294.405,160.932 294.042,161.397 294.795 C 161.537 295.022,161.377 295.089,161.021 294.953 C 160.679 294.822,160.400 294.524,160.400 294.291 C 160.400 294.057,160.283 293.984,160.140 294.127 C 159.996 294.270,159.681 294.124,159.440 293.801 C 159.198 293.479,158.574 293.152,158.053 293.076 C 157.532 292.999,156.790 292.517,156.404 292.005 C 155.783 291.182,155.194 290.960,153.300 290.833 C 153.025 290.815,152.800 290.530,152.800 290.200 C 152.800 289.870,152.530 289.600,152.200 289.600 C 151.870 289.600,151.600 289.409,151.600 289.176 C 151.600 288.943,151.420 288.864,151.200 289.000 C 150.980 289.136,150.800 289.062,150.800 288.836 C 150.800 288.610,150.530 288.529,150.200 288.655 C 149.804 288.807,149.589 288.633,149.568 288.143 C 149.551 287.734,149.450 287.614,149.343 287.875 C 149.212 288.198,148.902 288.102,148.375 287.575 C 147.949 287.149,147.330 286.800,147.000 286.800 C 146.670 286.800,146.400 286.609,146.400 286.376 C 146.400 286.143,146.220 286.064,146.000 286.200 C 145.780 286.336,145.600 286.263,145.600 286.038 C 145.600 285.553,144.391 284.855,143.249 284.680 C 142.802 284.612,141.978 284.062,141.418 283.458 C 140.843 282.837,140.386 282.585,140.368 282.879 C 140.346 283.252,140.282 283.265,140.143 282.922 C 140.036 282.660,139.709 282.537,139.416 282.649 C 139.123 282.762,138.591 282.437,138.234 281.927 C 137.877 281.417,137.453 280.993,137.292 280.985 C 136.212 280.928,134.800 280.302,134.800 279.880 C 134.800 279.317,132.476 278.306,131.941 278.636 C 131.754 278.752,131.600 278.537,131.600 278.157 C 131.600 277.777,131.489 277.578,131.352 277.714 C 131.216 277.850,130.843 277.700,130.524 277.381 C 130.204 277.061,129.596 276.800,129.171 276.800 C 128.747 276.800,128.400 276.641,128.400 276.446 C 128.400 276.251,127.725 275.775,126.900 275.388 C 126.075 275.001,125.260 274.448,125.089 274.159 C 124.919 273.870,124.514 273.735,124.189 273.859 C 123.853 273.989,123.600 273.858,123.600 273.556 C 123.600 272.978,121.709 271.200,121.095 271.200 C 120.886 271.200,120.816 270.935,120.940 270.612 C 121.064 270.288,120.891 269.748,120.554 269.412 C 120.218 269.075,120.091 268.797,120.271 268.794 C 120.452 268.791,120.330 268.617,120.000 268.409 C 119.348 267.996,118.651 184.400,119.300 184.400 C 119.465 184.400,119.600 183.969,119.600 183.443 C 119.600 182.906,119.903 182.369,120.289 182.221 C 120.879 181.995,120.893 181.904,120.389 181.585 C 120.046 181.368,119.995 181.210,120.267 181.206 C 120.524 181.203,121.059 180.349,121.456 179.309 C 122.160 177.467,125.842 173.200,126.728 173.200 C 126.966 173.200,127.304 172.953,127.480 172.652 C 127.656 172.351,128.835 171.618,130.100 171.023 C 131.365 170.428,132.400 169.813,132.400 169.655 C 132.400 169.496,133.387 168.867,134.593 168.257 C 135.799 167.646,136.875 167.002,136.984 166.825 C 137.094 166.649,138.222 165.987,139.491 165.356 C 140.761 164.725,141.932 164.026,142.094 163.804 C 142.287 163.538,142.394 163.537,142.406 163.800 C 142.416 164.020,142.608 163.885,142.832 163.500 C 143.056 163.115,143.501 162.800,143.820 162.800 C 144.139 162.800,144.760 162.440,145.200 162.000 C 145.640 161.560,146.000 161.387,146.000 161.616 C 146.000 161.844,146.405 161.652,146.900 161.189 C 147.395 160.726,148.698 159.894,149.796 159.342 C 150.894 158.789,151.884 158.214,151.996 158.064 C 152.108 157.915,152.920 157.434,153.800 156.996 C 154.680 156.558,155.546 155.971,155.725 155.692 C 155.903 155.412,156.218 155.288,156.425 155.415 C 156.631 155.543,156.800 155.457,156.800 155.224 C 156.800 154.991,156.935 154.832,157.100 154.872 C 157.483 154.964,159.926 153.585,160.771 152.800 C 161.125 152.470,162.447 151.699,163.708 151.088 C 164.969 150.476,166.000 149.801,166.000 149.588 C 166.000 149.374,166.191 149.200,166.424 149.200 C 166.657 149.200,166.733 149.425,166.594 149.700 C 166.455 149.975,166.582 149.909,166.876 149.553 C 167.170 149.196,168.354 148.396,169.506 147.774 C 170.658 147.152,171.600 146.488,171.600 146.298 C 171.600 146.108,171.778 146.063,171.995 146.197 C 172.212 146.331,172.793 146.065,173.287 145.605 C 173.780 145.145,174.593 144.666,175.092 144.541 C 175.591 144.416,176.000 144.063,176.000 143.757 C 176.000 143.450,176.283 143.200,176.629 143.200 C 177.308 143.200,180.747 141.351,181.400 140.634 C 181.620 140.393,182.790 139.690,184.000 139.072 C 187.553 137.256,189.600 135.968,189.600 135.546 C 189.600 135.330,189.791 135.271,190.025 135.416 C 190.259 135.560,190.792 135.369,191.210 134.991 C 191.628 134.612,192.247 134.409,192.585 134.539 C 192.923 134.669,193.200 134.611,193.200 134.411 C 193.200 133.428,199.124 132.935,202.426 133.643 " stroke="none" fill="#cbd4f4" fill-rule="evenodd"></path><path id="path1" d="M138.400 282.200 C 138.674 282.530,139.078 282.800,139.298 282.800 C 139.521 282.800,139.478 282.535,139.200 282.200 C 138.926 281.870,138.522 281.600,138.302 281.600 C 138.079 281.600,138.122 281.865,138.400 282.200 M170.000 299.924 C 170.000 300.139,170.285 300.424,170.633 300.557 C 171.023 300.707,171.206 300.618,171.108 300.325 C 170.909 299.727,170.000 299.398,170.000 299.924 " stroke="none" fill="#bcccec" fill-rule="evenodd"></path><path id="path2" d="M119.200 185.000 C 119.200 185.330,119.380 185.600,119.600 185.600 C 119.820 185.600,120.000 185.330,120.000 185.000 C 120.000 184.670,119.820 184.400,119.600 184.400 C 119.380 184.400,119.200 184.670,119.200 185.000 " stroke="none" fill="#a4b4cc" fill-rule="evenodd"></path><path id="path3" d="" stroke="none" fill="#c0d8f4" fill-rule="evenodd"></path><path id="path4" d="" stroke="none" fill="#c0d8f4" fill-rule="evenodd"></path></g></svg>